<?xml version="1.0" standalone="no"?>
<!DOCTYPE svg PUBLIC "-//W3C//DTD SVG 20010904//EN"
 "http://www.w3.org/TR/2001/REC-SVG-20010904/DTD/svg10.dtd">
<svg version="1.0" xmlns="http://www.w3.org/2000/svg"
 width="500.000000pt" height="500.000000pt" viewBox="0 0 500.000000 500.000000"
 preserveAspectRatio="xMidYMid meet">
<g transform="translate(0.000000,500.000000) scale(0.100000,-0.100000)"
fill="#000000" stroke="none">
<path d="M1792 3272 c-76 -3 -82 -4 -73 -21 22 -41 18 -91 -24 -306 -14 -66
-26 -131 -29 -145 -16 -93 -111 -453 -151 -576 -22 -67 -54 -135 -73 -156 -14
-17 -4 -18 207 -18 220 0 222 0 246 24 47 47 46 151 -5 293 -17 49 -33 95 -36
103 -4 13 9 15 81 14 47 0 87 -3 89 -5 3 -2 7 -25 10 -49 4 -25 8 -54 10 -65
10 -51 20 -164 17 -199 -1 -22 -9 -55 -17 -74 -8 -19 -14 -36 -14 -38 0 -2
196 -4 435 -4 433 0 434 0 454 22 25 26 35 75 26 120 -4 18 -27 77 -52 132
-24 54 -46 117 -49 140 -4 22 -7 43 -7 46 -4 17 27 80 39 80 14 0 57 -60 73
-103 5 -12 24 -53 42 -92 18 -38 34 -72 34 -75 0 -3 20 -45 43 -94 42 -90 52
-142 30 -164 -9 -9 41 -12 226 -12 l238 0 -30 34 c-54 62 -282 493 -282 534 0
49 206 509 269 601 l38 56 -176 -2 c-97 -1 -185 -4 -197 -7 -23 -6 -46 -51
-49 -94 -2 -38 12 -86 47 -156 60 -123 74 -196 49 -258 -26 -68 -53 -28 -202
309 -62 139 -65 152 -49 184 8 14 7 19 -2 20 -18 0 -418 0 -442 0 -19 -1 -19
-2 2 -21 37 -35 80 -105 165 -271 88 -171 114 -234 120 -283 2 -20 -15 -73
-51 -155 -29 -69 -55 -130 -56 -136 -5 -17 -37 -86 -78 -170 -57 -115 -98
-176 -116 -173 -24 5 -60 84 -104 230 -40 135 -95 343 -119 453 -7 33 -14 65
-15 70 -1 6 -5 26 -8 45 -4 19 -9 42 -11 50 -2 8 -6 33 -10 55 -3 22 -7 47
-10 55 -21 72 -29 193 -15 219 6 13 9 25 7 28 -6 5 -325 9 -445 5z m82 -275
c30 -39 76 -173 110 -324 14 -61 26 -117 26 -123 0 -7 -31 -10 -96 -8 l-96 3
-19 55 c-61 171 -65 354 -8 411 28 28 55 23 83 -14z"/>
</g>
</svg>
